<svg width="138" height="32" viewBox="0 0 138 32" fill="none" xmlns="http://www.w3.org/2000/svg">
<path d="M29.1896 3.21792C23.9091 3.21792 18.9585 3.71071 14.6844 4.56989C14.957 4.54333 15.2336 4.51913 15.512 4.49853C18.2958 4.11373 21.3265 3.9002 24.5011 3.9002C38.0323 3.9002 49.0021 7.73916 49.0021 12.4729C49.0021 17.2057 38.0323 21.0443 24.5011 21.0443C11.4105 21.0443 0.719874 17.4525 0.0361196 12.9325C0.0132108 13.0973 0 13.2648 0 13.4312C0 19.0711 13.0683 23.6432 29.1896 23.6432C45.3104 23.6432 58.3788 19.0711 58.3788 13.4312C58.3788 7.79107 45.3104 3.21792 29.1896 3.21792Z" fill="#1AAE48"/>
<path d="M24.5011 17.1439C38.0323 17.1439 49.0021 13.3049 49.0021 8.57192C49.0021 3.83748 38.0323 -8.76214e-05 24.5011 -8.76214e-05C21.3265 -8.76214e-05 18.2958 0.213279 15.512 0.598156C16.9227 0.48714 18.3872 0.425745 19.8942 0.425745C30.8819 0.425745 39.7884 3.54253 39.7884 7.38639C39.7884 11.23 30.8819 14.3471 19.8942 14.3471C9.45023 14.3471 0.893195 11.531 0.0711523 7.95046C0.0282609 8.1563 0 8.36354 0 8.57192C0 8.72528 0.0128763 8.87913 0.0361196 9.03192C0.719874 13.5533 11.4105 17.1439 24.5011 17.1439Z" fill="#2B87A8"/>
<path d="M73.9227 9.57136C73.9227 7.44424 73.0782 6.37913 71.3886 6.37913C70.9017 6.37913 70.4723 6.46358 70.1002 6.6319V12.4902C70.2574 12.5329 70.4075 12.5539 70.5512 12.5539C71.4814 12.5539 72.2407 12.3438 72.8276 11.9235C73.5579 11.4055 73.9227 10.6214 73.9227 9.57136ZM76.3377 20.001H74.1959L70.1002 12.8896V20.0232H68.2319V5.95983C68.9907 5.4001 70.0498 5.1197 71.4103 5.1197C74.302 5.1197 75.7489 6.58922 75.7489 9.52983C75.7489 10.5232 75.4084 11.3851 74.7289 12.1126C74.0479 12.8402 73.2497 13.2389 72.3338 13.3098V13.3518L76.3377 20.001Z" fill="#1AAE48"/>
<path d="M84.4547 19.0627C83.5675 19.6927 82.3929 20.0079 80.9324 20.0079C78.5562 20.0079 77.3672 18.7617 77.3672 16.2699V8.45919H79.1929V16.48C79.1929 17.9073 79.8122 18.6218 81.0502 18.6218C81.6625 18.6218 82.2022 18.4755 82.6718 18.1808V8.45919H84.4547V19.0627Z" fill="#1AAE48"/>
<path d="M90.9337 8.24906L90.5045 9.80312C90.1894 9.67649 89.8521 9.61338 89.4952 9.61338C89.0369 9.61338 88.6358 9.71851 88.292 9.92861V20.0232H86.5093V9.08814C87.0536 8.76686 87.6055 8.54958 88.1633 8.43799C88.8356 8.29811 89.7597 8.23468 90.9337 8.24906Z" fill="#1AAE48"/>
<path d="M96.9363 18.4755V13.4767C95.6473 13.6735 94.738 13.9677 94.2088 14.3588C93.5783 14.8353 93.2637 15.57 93.2637 16.5639C93.2637 18.0483 93.9977 18.7897 95.4667 18.7897C96.0723 18.7897 96.5616 18.685 96.9363 18.4755ZM98.6324 19.147C97.7731 19.7069 96.6703 19.9862 95.3251 19.9862C94.0935 19.9862 93.1486 19.6714 92.4897 19.042C91.8751 18.4541 91.5669 17.6353 91.5669 16.5847C91.5669 15.2132 92.1042 14.1779 93.1772 13.4767C94.0079 12.9316 95.2609 12.5539 96.9363 12.3438V11.7974C96.9363 10.3277 96.2625 9.59225 94.9179 9.59225C94.0863 9.59225 93.3064 9.8169 92.5751 10.2638L92.1682 9.08802C93.0271 8.52869 94.0288 8.24894 95.1742 8.24894C97.4793 8.24894 98.6324 9.48786 98.6324 11.9652V19.147Z" fill="#1AAE48"/>
<path d="M102.499 20.0232H100.715V5.10949H102.499V20.0232Z" fill="#1AAE48"/>
<path d="M108.3 6.04162V19.9164H107.077V6.04162H103.963V5.22298H111.415V6.04162H108.3Z" fill="#2B87A8"/>
<path d="M115.814 8.96114C114.816 8.96114 114.021 9.35583 113.428 10.1448C112.836 10.9348 112.54 12.1613 112.54 13.8243L118.832 12.8784C118.832 11.5088 118.571 10.5139 118.051 9.89268C117.531 9.27122 116.785 8.96114 115.814 8.96114ZM112.537 14.504C112.537 15.9603 112.889 17.0729 113.591 17.8431C114.294 18.6127 115.24 18.9981 116.431 18.9981C117.017 18.9981 117.541 18.9352 118 18.8091C118.458 18.6829 118.858 18.5218 119.204 18.3264L119.569 19.1447C119.239 19.3545 118.789 19.5304 118.217 19.6697C117.645 19.8095 117.045 19.8795 116.416 19.8795C114.916 19.8795 113.715 19.4006 112.816 18.4417C111.915 17.4829 111.464 15.9953 111.464 13.9787C111.464 12.0617 111.872 10.6087 112.688 9.62298C113.505 8.63447 114.556 8.14217 115.845 8.14217C117.162 8.14217 118.183 8.5658 118.906 9.4124C119.629 10.2594 119.99 11.5996 119.99 13.4334L112.537 14.504Z" fill="#2B87A8"/>
<path d="M125.887 19.8795C124.655 19.8795 123.65 19.3446 122.869 18.2739C122.09 17.2025 121.699 15.7852 121.699 14.0213C121.699 12.2023 122.085 10.767 122.859 9.71675C123.632 8.66611 124.67 8.14226 125.973 8.14226C126.574 8.14226 127.068 8.21346 127.455 8.35685C127.842 8.5004 128.15 8.66128 128.378 8.83835L128.056 9.56968C127.827 9.3958 127.562 9.25078 127.262 9.13445C126.96 9.01853 126.589 8.96114 126.145 8.96114C125.014 8.96114 124.183 9.41003 123.654 10.3075C123.124 11.205 122.859 12.4124 122.859 13.927C122.859 15.4424 123.138 16.6659 123.697 17.5993C124.254 18.5321 125.05 18.9982 126.08 18.9982C126.495 18.9982 126.853 18.9459 127.154 18.8409C127.455 18.7358 127.747 18.5851 128.035 18.3889L128.378 19.1659C128.15 19.362 127.816 19.5304 127.38 19.6697C126.942 19.8096 126.446 19.8795 125.887 19.8795Z" fill="#2B87A8"/>
<path d="M136.678 19.8942V11.549C136.678 10.791 136.478 10.1772 136.077 9.70712C135.676 9.23812 134.989 9.00276 134.016 9.00276C133.042 9.00276 132.147 9.24123 131.331 9.71783V19.8942H130.171V5.21646H131.331V9.04462C132.291 8.51292 133.205 8.24658 134.079 8.24658C135.425 8.24658 136.388 8.56933 136.969 9.21417C137.548 9.85958 137.838 10.6238 137.838 11.5072V19.8942H136.678Z" fill="#2B87A8"/>
<path d="M69.9833 30.5356C69.34 30.5356 68.9259 30.1307 68.9259 29.336V25.6297H68.4014V25.1184H68.9259V23.8829L69.6715 23.6093V25.1184H70.4066V25.6297H69.6715V29.2828C69.6715 29.7858 69.8815 29.9624 70.1764 29.9624C70.2594 29.9624 70.3325 29.9448 70.4066 29.9264V30.4662C70.3235 30.5007 70.1676 30.5356 69.9833 30.5356Z" fill="#918F90"/>
<path d="M72.6268 25.5502C72.0195 25.5502 71.6708 26.2999 71.6798 27.7211L73.5 27.5093C73.4728 26.3091 73.2602 25.5502 72.6268 25.5502ZM74.2271 27.9236L71.688 28.2236C71.6984 29.1769 72.1294 29.9717 72.8463 29.9717C73.3622 29.9717 73.7113 29.838 73.914 29.6978L74.1164 30.2355C73.878 30.4121 73.4167 30.5883 72.8015 30.5883C71.6424 30.5883 70.9443 29.6182 70.9443 27.9061C70.9443 25.9115 71.6063 25.0299 72.654 25.0299C73.7559 25.0299 74.2435 26.0792 74.2435 27.5706C74.2435 27.6768 74.2347 27.81 74.2271 27.9236Z" fill="#918F90"/>
<path d="M76.6927 30.5884C75.6161 30.5884 75.0186 29.6267 75.0186 27.81C75.0186 25.9994 75.6276 25.03 76.6927 25.03C77.1806 25.03 77.5112 25.2153 77.6771 25.3828L77.4743 25.8681C77.3448 25.7534 77.0879 25.6027 76.7852 25.6027C76.1224 25.6027 75.7817 26.3529 75.7817 27.7915C75.7817 29.2293 76.1496 29.9718 76.7852 29.9718C77.0879 29.9718 77.3448 29.8473 77.4743 29.7156L77.6771 30.2355C77.5112 30.3954 77.207 30.5884 76.6927 30.5884Z" fill="#918F90"/>
<path d="M80.7542 30.5007V26.4946C80.7542 25.9295 80.5154 25.5674 79.8987 25.5674C79.5864 25.5674 79.3937 25.6212 79.22 25.7002V30.5007H78.4741V25.3828C78.7961 25.1883 79.3014 25.03 79.9269 25.03C81.0116 25.03 81.4998 25.6026 81.4998 26.4776V30.5007H80.7542Z" fill="#918F90"/>
<path d="M84.0738 25.5674C83.3855 25.5674 83.1913 26.4946 83.1913 27.7914C83.1913 29.0883 83.3855 30.0147 84.0738 30.0147C84.7637 30.0147 84.9577 29.0883 84.9577 27.7914C84.9577 26.4946 84.7637 25.5674 84.0738 25.5674ZM84.0738 30.5883C82.9073 30.5883 82.4287 29.503 82.4287 27.81C82.4287 26.1155 82.9073 25.0299 84.0738 25.0299C85.2418 25.0299 85.7199 26.1155 85.7199 27.81C85.7199 29.503 85.2418 30.5883 84.0738 30.5883Z" fill="#918F90"/>
<path d="M86.6792 23.088H87.4246V30.5007H86.6792V23.088Z" fill="#918F90"/>
<path d="M90.0255 25.5674C89.3362 25.5674 89.1426 26.4946 89.1426 27.7914C89.1426 29.0883 89.3362 30.0147 90.0255 30.0147C90.7162 30.0147 90.9085 29.0883 90.9085 27.7914C90.9085 26.4946 90.7162 25.5674 90.0255 25.5674ZM90.0255 30.5883C88.858 30.5883 88.3799 29.503 88.3799 27.81C88.3799 26.1155 88.858 25.0299 90.0255 25.0299C91.1942 25.0299 91.6698 26.1155 91.6698 27.81C91.6698 29.503 91.1942 30.5883 90.0255 30.5883Z" fill="#918F90"/>
<path d="M94.8556 25.6735C94.7455 25.612 94.5333 25.5674 94.3216 25.5674C93.5401 25.5674 93.2004 26.4506 93.2004 27.6592C93.2004 28.7962 93.4845 29.5558 94.2026 29.5558C94.4785 29.5558 94.7369 29.4683 94.8556 29.3982V25.6735ZM93.9453 31.9999C93.3846 31.9999 92.8964 31.8418 92.6119 31.647L92.8415 31.1099C93.0172 31.2417 93.4392 31.3826 93.8348 31.3826C94.5516 31.3826 94.8556 30.8275 94.8556 30.1469V29.918C94.7261 30.0065 94.3964 30.1211 94.0557 30.1211C93.0529 30.1211 92.4463 29.1416 92.4463 27.6938C92.4463 26.177 93.0804 25.0299 94.3492 25.0299C94.8921 25.0299 95.3518 25.1968 95.5994 25.3827V30.068C95.5994 31.2677 94.9738 31.9999 93.9453 31.9999Z" fill="#918F90"/>
<path d="M96.7056 25.1183H97.4516V30.5007H96.7056V25.1183ZM97.0822 23.8469C96.8345 23.8469 96.6406 23.6624 96.6406 23.4232C96.6406 23.1857 96.8345 22.9996 97.0822 22.9996C97.3307 22.9996 97.5234 23.1857 97.5234 23.4232C97.5234 23.6624 97.3307 23.8469 97.0822 23.8469Z" fill="#918F90"/>
<path d="M100.555 27.3677C99.654 27.5002 99.0107 27.8798 99.0107 28.8854C99.0107 29.5204 99.3234 30.0417 99.9487 30.0417C100.196 30.0417 100.426 29.9794 100.555 29.9088V27.3677ZM99.903 30.5883C98.7805 30.5883 98.293 29.7686 98.293 28.9117C98.293 27.5706 99.3514 27.0233 100.555 26.8744V26.5565C100.555 25.9025 100.28 25.6026 99.7094 25.6026C99.2684 25.6026 98.8924 25.762 98.6797 25.8856L98.4957 25.3827C98.7346 25.2237 99.2302 25.0299 99.7927 25.0299C100.758 25.0299 101.271 25.5321 101.271 26.5735V30.2272C100.988 30.4301 100.482 30.5883 99.903 30.5883Z" fill="#918F90"/>
<path d="M106.116 25.5502C105.508 25.5502 105.159 26.2999 105.17 27.7211L106.989 27.5093C106.962 26.3091 106.75 25.5502 106.116 25.5502ZM107.715 27.9236L105.177 28.2236C105.186 29.1769 105.619 29.9717 106.335 29.9717C106.851 29.9717 107.199 29.838 107.403 29.6978L107.604 30.2355C107.365 30.4121 106.906 30.5883 106.29 30.5883C105.132 30.5883 104.433 29.6182 104.433 27.9061C104.433 25.9115 105.095 25.0299 106.143 25.0299C107.247 25.0299 107.734 26.0792 107.734 27.5706C107.734 27.6768 107.724 27.81 107.715 27.9236Z" fill="#918F90"/>
<path d="M113.167 30.5007V26.4946C113.167 25.8936 112.918 25.5674 112.403 25.5674C112.101 25.5674 111.843 25.7002 111.632 25.9472V30.5007H110.887V26.4506C110.887 25.9295 110.602 25.5674 110.031 25.5674C109.701 25.5674 109.534 25.612 109.352 25.7002V30.5007H108.607V25.3828C108.891 25.206 109.352 25.03 110.06 25.03C110.704 25.03 111.07 25.25 111.292 25.5502C111.568 25.25 112.008 25.03 112.533 25.03C113.406 25.03 113.911 25.5502 113.911 26.4776V30.5007H113.167Z" fill="#918F90"/>
<path d="M118.745 30.5884C117.67 30.5884 117.072 29.6267 117.072 27.81C117.072 25.9994 117.679 25.03 118.745 25.03C119.233 25.03 119.563 25.2153 119.729 25.3828L119.527 25.8681C119.398 25.7534 119.141 25.6027 118.837 25.6027C118.175 25.6027 117.835 26.3529 117.835 27.7915C117.835 29.2293 118.203 29.9718 118.837 29.9718C119.141 29.9718 119.398 29.8473 119.527 29.7156L119.729 30.2355C119.563 30.3954 119.261 30.5884 118.745 30.5884Z" fill="#918F90"/>
<path d="M122.578 27.3677C121.675 27.5002 121.033 27.8798 121.033 28.8854C121.033 29.5204 121.346 30.0417 121.97 30.0417C122.219 30.0417 122.449 29.9794 122.578 29.9088V27.3677ZM121.925 30.5883C120.802 30.5883 120.316 29.7686 120.316 28.9117C120.316 27.5706 121.374 27.0233 122.578 26.8744V26.5565C122.578 25.9025 122.301 25.6026 121.732 25.6026C121.29 25.6026 120.914 25.762 120.702 25.8856L120.519 25.3827C120.758 25.2237 121.254 25.0299 121.815 25.0299C122.779 25.0299 123.295 25.5321 123.295 26.5735V30.2272C123.009 30.4301 122.504 30.5883 121.925 30.5883Z" fill="#918F90"/>
<path d="M128.94 30.5007V26.4946C128.94 25.8936 128.691 25.5674 128.177 25.5674C127.873 25.5674 127.615 25.7002 127.403 25.9472V30.5007H126.66V26.4506C126.66 25.9295 126.375 25.5674 125.805 25.5674C125.474 25.5674 125.309 25.612 125.125 25.7002V30.5007H124.38V25.3828C124.665 25.206 125.125 25.03 125.832 25.03C126.475 25.03 126.844 25.25 127.064 25.5502C127.34 25.25 127.781 25.03 128.305 25.03C129.178 25.03 129.684 25.5502 129.684 26.4776V30.5007H128.94Z" fill="#918F90"/>
<path d="M132.059 25.5674C131.828 25.5674 131.608 25.6119 131.526 25.6643V29.9088C131.608 29.9356 131.783 29.9794 131.976 29.9794C132.849 29.9794 133.18 29.1854 133.18 27.7559C133.18 26.3447 132.793 25.5674 132.059 25.5674ZM132.115 30.5445C131.837 30.5445 131.625 30.4913 131.526 30.4477V31.9124H130.781V25.3827C131.002 25.2152 131.479 25.0299 132.086 25.0299C133.255 25.0299 133.933 25.9993 133.933 27.7559C133.933 29.5912 133.263 30.5445 132.115 30.5445Z" fill="#918F90"/>
<path d="M136.355 25.5674C135.666 25.5674 135.472 26.4946 135.472 27.7914C135.472 29.0883 135.666 30.0147 136.355 30.0147C137.044 30.0147 137.237 29.0883 137.237 27.7914C137.237 26.4946 137.044 25.5674 136.355 25.5674ZM136.355 30.5883C135.188 30.5883 134.708 29.503 134.708 27.81C134.708 26.1155 135.188 25.0299 136.355 25.0299C137.523 25.0299 138 26.1155 138 27.81C138 29.503 137.523 30.5883 136.355 30.5883Z" fill="#918F90"/>
</svg>
